<svg width="512" height="512" viewBox="0 0 512 512" fill="none" xmlns="http://www.w3.org/2000/svg" xmlns:xlink="http://www.w3.org/1999/xlink"><rect id="_r_8_" width="512" height="512" x="0" y="0" rx="128" fill="url(#_r_9_)" stroke="#FFFFFF" stroke-width="0" stroke-opacity="100%" paint-order="stroke"></rect><clipPath id="clip"><use xlink:href="#_r_8_"></use></clipPath><defs><linearGradient id="_r_9_" gradientUnits="userSpaceOnUse" gradientTransform="rotate(45)" style="transform-origin: center center;"><stop stop-color="#8E2DE2"></stop><stop offset="1" stop-color="#4A00E0"></stop></linearGradient><radialGradient id="_r_a_" cx="0" cy="0" r="1" gradientUnits="userSpaceOnUse" gradientTransform="translate(256) rotate(90) scale(512)"><stop stop-color="white"></stop><stop offset="1" stop-color="white" stop-opacity="0"></stop></radialGradient></defs><svg xmlns="http://www.w3.org/2000/svg" fill="none" viewBox="0 0 16 16" width="352" height="352" x="80" y="80" alignment-baseline="middle" style="color: rgb(255, 255, 255); width: 352px; height: 352px;"><path fill="currentColor" fill-rule="evenodd" d="M8 2.5a5.5 5.5 0 0 0-4.52 8.635C4.67 10.039 6.32 9.5 8 9.5c1.681 0 3.33.54 4.52 1.635A5.5 5.5 0 0 0 8 2.5Zm3.504 9.74C10.64 11.443 9.384 11 8 11s-2.64.444-3.504 1.24A5.478 5.478 0 0 0 8 13.5a5.478 5.478 0 0 0 3.504-1.26ZM1 8a7 7 0 1 1 14 0A7 7 0 0 1 1 8Zm7-3a1 1 0 1 0 0 2 1 1 0 0 0 0-2ZM5.5 6a2.5 2.5 0 1 1 5 0 2.5 2.5 0 0 1-5 0Z" clip-rule="evenodd"></path></svg></svg>